<?xml version="1.0" encoding="UTF-8" standalone="no"?>
<!DOCTYPE svg PUBLIC "-//W3C//DTD SVG 1.1//EN" "http://www.w3.org/Graphics/SVG/1.1/DTD/svg11.dtd">
<svg width="100%" height="100%" viewBox="0 0 48 48" version="1.1" xmlns="http://www.w3.org/2000/svg" xmlns:xlink="http://www.w3.org/1999/xlink" xml:space="preserve" xmlns:serif="http://www.serif.com/" style="fill-rule:evenodd;clip-rule:evenodd;stroke-linejoin:round;stroke-miterlimit:2;">
    <g transform="matrix(1,0,0,1,-64.8151,-715.568)">
        <g transform="matrix(1.17957,0,0,1.35751,37.946,715.568)">
            <g transform="matrix(2.03465,0,0,1.70606,-189.553,-272.542)">
                <g transform="matrix(1,0,0,1.03627,-23.2379,-6.54652)">
                    <path d="M128.618,168.856C127.996,169.155 127.601,169.784 127.601,170.475C127.596,170.475 127.596,170.475 127.596,170.475L137.596,170.475L137.596,160.475L137.596,160.475C136.904,160.475 136.273,160.871 135.972,161.495C134.413,164.693 131.815,167.292 128.618,168.856Z" style="fill:rgb(250,249,248);"/>
                </g>
                <g transform="matrix(-1,-4.60341e-18,-4.28677e-18,-1.03627,251.954,346.771)">
                    <path d="M128.618,168.856C127.996,169.155 127.601,169.784 127.601,170.475C127.596,170.475 127.596,170.475 127.596,170.475L137.596,170.475L137.596,160.475L137.596,160.475C136.904,160.475 136.273,160.871 135.972,161.495C134.413,164.693 131.815,167.292 128.618,168.856Z" style="fill:rgb(197,188,179);"/>
                </g>
                <g transform="matrix(-1,0,0,1.03627,251.954,-6.54652)">
                    <path d="M128.618,168.856C127.996,169.155 127.601,169.784 127.601,170.475C127.596,170.475 127.596,170.475 127.596,170.475L137.596,170.475L137.596,160.475L137.596,160.475C136.904,160.475 136.273,160.871 135.972,161.495C134.413,164.693 131.815,167.292 128.618,168.856Z" style="fill:rgb(230,224,219);"/>
                </g>
                <g transform="matrix(1,-4.60341e-18,4.28677e-18,-1.03627,-23.2379,346.771)">
                    <path d="M128.618,168.856C127.996,169.155 127.601,169.784 127.601,170.475C127.596,170.475 127.596,170.475 127.596,170.475L137.596,170.475L137.596,160.475L137.596,160.475C136.904,160.475 136.273,160.871 135.972,161.495C134.413,164.693 131.815,167.292 128.618,168.856Z" style="fill:rgb(230,224,219);"/>
                </g>
            </g>
        </g>
    </g>
</svg>
